<svg width="19" height="19" viewBox="0 0 19 19" fill="none" xmlns="http://www.w3.org/2000/svg">
<path fill-rule="evenodd" clip-rule="evenodd" d="M8.68685 0.636876C9.13595 0.187773 9.86409 0.187773 10.3132 0.636876L18.3632 8.68688C18.6921 9.01577 18.7905 9.51041 18.6125 9.94013C18.4345 10.3699 18.0152 10.65 17.55 10.65H16.4V17.55C16.4 18.1852 15.8851 18.7 15.25 18.7H12.95C12.3149 18.7 11.8 18.1852 11.8 17.55V14.1C11.8 13.4649 11.2851 12.95 10.65 12.95H8.35002C7.71489 12.95 7.20002 13.4649 7.20002 14.1V17.55C7.20002 18.1852 6.68515 18.7 6.05002 18.7H3.75002C3.11489 18.7 2.60002 18.1852 2.60002 17.55V10.65H1.45002C0.98489 10.65 0.565558 10.3699 0.38756 9.94013C0.209562 9.51041 0.307951 9.01577 0.636849 8.68688L8.68685 0.636876Z" fill="#4D4D4D"/>
</svg>
