<svg width="20" height="20" viewBox="0 0 20 20" fill="none" xmlns="http://www.w3.org/2000/svg">
<path d="M5.53953 3.34814C5.53953 3.60701 5.32969 3.81689 5.07078 3.81689H1.99945C1.6602 3.81689 1.38418 4.07283 1.38418 4.38736V7.33189C1.38418 7.59076 1.1743 7.80064 0.91543 7.80064C0.656523 7.80064 0.44668 7.59076 0.44668 7.33189V4.38736C0.44668 3.55588 1.14324 2.87939 1.99945 2.87939H5.07082C5.32969 2.87939 5.53953 3.08928 5.53953 3.34814ZM19.0846 12.1995C18.8257 12.1995 18.6158 12.4094 18.6158 12.6682V15.6128C18.6158 15.9274 18.3398 16.1833 18.0006 16.1833H14.9292C14.6703 16.1833 14.4604 16.3931 14.4604 16.652C14.4604 16.9109 14.6703 17.1208 14.9292 17.1208H18.0006C18.8568 17.1208 19.5533 16.4443 19.5533 15.6128V12.6682C19.5533 12.4094 19.3435 12.1995 19.0846 12.1995ZM4.9757 16.1832H1.90434C1.56504 16.1832 1.28906 15.9273 1.28906 15.6128V12.6682C1.28906 12.4093 1.07922 12.1994 0.820312 12.1994C0.561406 12.1994 0.351562 12.4093 0.351562 12.6682V15.6128C0.351562 16.4442 1.04812 17.1207 1.90434 17.1207H4.9757C5.23461 17.1207 5.44445 16.9108 5.44445 16.652C5.44445 16.3931 5.23461 16.1832 4.9757 16.1832ZM18.0957 2.87939H15.0243C14.7654 2.87939 14.5555 3.08928 14.5555 3.34814C14.5555 3.60701 14.7654 3.81689 15.0243 3.81689H18.0957C18.435 3.81689 18.7109 4.07283 18.7109 4.38736V7.33189C18.7109 7.59076 18.9208 7.80064 19.1797 7.80064C19.4386 7.80064 19.6484 7.59076 19.6484 7.33189V4.38736C19.6484 3.55588 18.9519 2.87939 18.0957 2.87939ZM4.43691 12.5312V7.62049C4.43691 7.36158 4.22707 7.15174 3.96816 7.15174C3.70926 7.15174 3.49941 7.36158 3.49941 7.62049V12.5312C3.49941 12.7901 3.70926 12.9999 3.96816 12.9999C4.22707 12.9999 4.43691 12.7901 4.43691 12.5312ZM7.98938 7.15174C7.73047 7.15174 7.52063 7.36158 7.52063 7.62049V12.5312C7.52063 12.7901 7.73047 12.9999 7.98938 12.9999C8.24828 12.9999 8.45813 12.7901 8.45813 12.5312V7.62049C8.45813 7.36158 8.24828 7.15174 7.98938 7.15174ZM12.0106 7.15174C11.7517 7.15174 11.5419 7.36158 11.5419 7.62049V12.5312C11.5419 12.7901 11.7517 12.9999 12.0106 12.9999C12.2695 12.9999 12.4794 12.7901 12.4794 12.5312V7.62049C12.4794 7.36158 12.2695 7.15174 12.0106 7.15174ZM16.5006 12.5312V7.62049C16.5006 7.36158 16.2907 7.15174 16.0318 7.15174C15.7729 7.15174 15.5631 7.36158 15.5631 7.62049V12.5312C15.5631 12.7901 15.7729 12.9999 16.0318 12.9999C16.2907 12.9999 16.5006 12.7901 16.5006 12.5312Z" fill="#F76B56"/>
</svg>
