<svg width="17" height="17" viewBox="0 0 17 17" fill="none" xmlns="http://www.w3.org/2000/svg">
<path d="M2.02 11.5C3.17395 12.6556 4.71064 13.3493 6.34058 13.4505C7.97052 13.5516 9.5812 13.0532 10.8692 12.0492L15.3008 16.4809C15.458 16.6327 15.6685 16.7167 15.887 16.7148C16.1055 16.7129 16.3145 16.6252 16.469 16.4707C16.6235 16.3162 16.7112 16.1072 16.7131 15.8887C16.715 15.6702 16.631 15.4597 16.4792 15.3025L12.0475 10.8709C13.0961 9.52516 13.5918 7.83015 13.4337 6.1315C13.2755 4.43285 12.4753 2.85852 11.1962 1.72958C9.91721 0.600637 8.25569 0.0021199 6.55055 0.0560913C4.84541 0.110063 3.22507 0.812457 2.02 2.02003C1.39733 2.64238 0.903384 3.38132 0.56638 4.19462C0.229376 5.00793 0.0559196 5.87966 0.0559196 6.76003C0.0559196 7.64039 0.229376 8.51213 0.56638 9.32543C0.903384 10.1387 1.39733 10.8777 2.02 11.5ZM3.19833 3.20003C4.02214 2.37623 5.1061 1.86356 6.26552 1.74936C7.42494 1.63515 8.58809 1.92648 9.5568 2.57371C10.5255 3.22094 11.2398 4.18402 11.5781 5.29887C11.9163 6.41372 11.8576 7.61136 11.4118 8.68774C10.966 9.76412 10.1609 10.6526 9.13344 11.2019C8.10602 11.7512 6.91994 11.9273 5.77727 11.7001C4.6346 11.473 3.60603 10.8566 2.86683 9.95614C2.12762 9.05566 1.72351 7.92672 1.72333 6.76169C1.72105 6.09967 1.85025 5.44379 2.10346 4.83209C2.35666 4.2204 2.72881 3.66508 3.19833 3.19836V3.20003Z" fill="#F76B56"/>
</svg>
